<svg xmlns="http://www.w3.org/2000/svg" viewBox="0 0 100 100" fill="none">
  <defs>
    <linearGradient id="favGrad" x1="0%" y1="0%" x2="100%" y2="100%">
      <stop offset="0%" stopColor="#06B6D4" />
      <stop offset="100%" stopColor="#2563EB" />
    </linearGradient>
    <linearGradient id="favAccent" x1="0%" y1="0%" x2="100%" y2="100%">
      <stop offset="0%" stopColor="#38BDF8" />
      <stop offset="50%" stopColor="#06B6D4" />
      <stop offset="100%" stopColor="#0284C7" />
    </linearGradient>
    <linearGradient id="favLetter" x1="0%" y1="0%" x2="100%" y2="100%">
      <stop offset="0%" stopColor="#FFFFFF" />
      <stop offset="100%" stopColor="#94A3B8" />
    </linearGradient>
  </defs>

  <rect width="100" height="100" rx="24" fill="#0F172A" />
  <rect x="3" y="3" width="94" height="94" rx="21" stroke="url(#favGrad)" stroke-width="3" />

  <!-- LETTER A -->
  <path d="M14 80 L30 18 H44 L60 76 H48 L44 60 H28 L23 76 L20 80 H14 Z M30 48 H41 L36 28 Z" fill="url(#favLetter)" fill-rule="evenodd" />

  <!-- LETTER S -->
  <path d="M82 28 C78 20 68 16 56 18 C46 19 39 25 39 33 C39 41 46 45 56 48 C68 51 78 55 78 65 C78 75 67 82 52 82 C40 82 31 77 26 68 L36 61 C40 67 46 72 52 72 C60 72 66 68 66 63 C66 58 60 54 49 51 C37 47 27 42 27 32 C27 21 37 9 56 9 C69 9 79 14 87 23 L82 28 Z" fill="url(#favLetter)" opacity="0.88" />

  <!-- INSCRIBED G -->
  <path d="M66 41 C63 34 57 30 50 30 C39 30 30 39 30 50 C30 61 39 70 50 70 C59 70 66 65 68 57 H50 V48 H76 V59 C74 71 63 80 50 80 C33 80 20 67 20 50 C20 33 33 20 50 20 C61 20 71 26 75 36 L66 41 Z" fill="url(#favAccent)" stroke="#0F172A" stroke-width="2.5" stroke-linejoin="round" />
  <path d="M50 48 H74 V56 H50 Z" fill="url(#favAccent)" stroke="#0F172A" stroke-width="1.5" />
  <circle cx="62" cy="52" r="2.5" fill="#FFFFFF" />
</svg>
